# xmcd CD database file
#
# Track frame offsets:
#	150
#	15631
#	36760
#	57986
#	81989
#	104324
#	127548
#	140942
#	160872
#	176702
#	195836
#	223284
#
# Disc length: 3344 seconds
#
# Revision: 1
# Processed by: cddbd v1.5.1PL0 Copyright (c) Steve Scherf et al.
# Submitted via: CDex 1.50beta10
#
DISCID=a30d0e0c
DTITLE=Fusion Music Works - flowers
DYEAR=2004
DGENRE=Vocal
TTITLE0=affection
TTITLE1=Pray to moon
TTITLE2=恋してもいいですか
TTITLE3=start afresh
TTITLE4=Butterfly.
TTITLE5=Wondering over the ground
TTITLE6=仄風
TTITLE7=涙は虹へ
TTITLE8=月誘
TTITLE9=銀の翼
TTITLE10=徒花（あだばな）-for flowers version-
TTITLE11=泣けない道化師
EXTD=YEAR: 2004.12.30
EXTT0=
EXTT1=
EXTT2=
EXTT3=
EXTT4=
EXTT5=
EXTT6=
EXTT7=
EXTT8=
EXTT9=
EXTT10=
EXTT11=
PLAYORDER=
